Patient4_TMGait_0pt7_01_right_11_EMG.mot
version=1
nRows=23
nColumns=33
inDegrees=no
endheader
time	1LAddLong	2LGlutMax	3LGlutMed	4LIliopsoas	5LSemiMemb	6LBicFemLong	7LRecFem	8LVastMed	9LVastLat	10LGasMed	11LTibAnt	12lTibPost	13LPeroneusLong	14LSol	15LExtDigLong	16LFlexDigLong	17RAddLong	18RGlutMax	19RGlutMed	20RIliopsoas	21RSemiMemb	22RBicFemLong	23RRecFem	24RVastMed	25RVastLat	26RGasMed	27RTibAnt	28RTibPost	29RPeroneusLong	30RSol	31RExtDigLong	32RFlexDigLong
12.88	0.013428	0.42053	0.007324	0.039825	-0.059357	0.45258	-0.072174	-0.021515	-0.097656	-0.048523	0.072937	-0.005188	0.20203	-0.057373	-0.027313	0.005188	0.022888	-0.04303	0.47379	-0.16846	0.061035	0.085602	-0.48492	0.011139	0.071411	0.021057	0.31555	-0.002747	-0.055542	-0.16174	-0.00946	-0.006256
12.881	0.025787	0.37689	0.026245	0.021667	0.10086	0.38208	-0.055237	-0.024261	-0.11124	-0.043335	0.016022	-0.002136	0.13702	0.049744	0.18799	0.010376	0.020142	-0.090179	0.38452	-0.19989	0.063782	0.097198	-0.40161	0.014801	0.05249	0.018616	0.15503	-0.001678	0.095825	-0.059204	0.001984	-0.001526
12.882	0.00946	0.35111	0.028534	-0.003204	0.19043	0.43137	0.034485	-0.025482	-0.1648	-0.016479	0.006866	-0.003052	-0.002441	0.060577	0.17517	0.009613	0.015411	-0.11581	0.34164	-0.12512	0.057678	0.088196	-0.38971	0.001831	0.053711	0.020752	0.067902	-0.002594	-1.8436	-0.035248	-0.006714	0.001831
12.883	-0.024261	0.31464	0.018616	-0.003052	0.084534	0.37857	0.1001	0.003052	-0.28442	0.002136	-0.006409	-0.005341	0.097656	-0.103	0.10025	0.004272	0.026703	-0.083466	0.25223	0.038147	0.057983	0.093079	-0.41489	-0.018158	0.052795	0.011139	-0.16968	0.001984	-1.4613	0.077057	-0.002899	-0.005188
12.884	-0.042419	0.28641	0.025787	0.005035	-0.014648	0.1976	0.096436	0.006104	-0.31677	0.013123	-0.025635	-0.009155	0.1416	-0.09201	0.16098	-0.006409	0.00824	-0.072174	0.1796	0.19073	0.055542	0.112	-0.39276	-0.043182	0.035095	-0.007477	-0.26871	-0.004272	-0.30884	0.18448	-0.003967	-0.013428
12.885	-0.028687	0.26825	0.072479	-0.005646	-0.012512	0.17532	0.009766	0.006561	-0.19638	0.004883	-0.001831	-0.002899	0.092468	-0.034027	0.25085	-0.000916	0.009003	-0.10254	0.20706	0.16007	0.060272	0.086517	-0.41077	-0.012054	0.014801	-0.008698	-0.25177	0.002899	0.34241	0.26657	-0.001526	-0.000153
12.886	-0.017548	0.28809	0.21515	0.001068	0.02655	0.010834	-0.098419	-0.013428	-0.17227	0.012207	-0.019073	-0.00473	0.065002	-0.067444	0.19272	-0.010529	0.009766	-0.12131	0.098419	0.014496	0.062714	0.080872	-0.41168	-0.018158	0.023499	-0.007172	-0.06073	0.001526	0.36667	0.3064	-0.007935	-0.00351
12.887	0.003967	0.26764	0.14358	0.006866	0.062408	-0.004578	-0.19363	-0.015259	-0.1416	0.015564	-0.047913	-0.004425	0.045319	-0.047302	0.15961	0.001984	0.015717	-0.13336	0.21393	0.014038	0.050659	0.07309	-0.42923	-0.039825	0.011444	0.000458	0.03006	-0.000153	-0.34195	0.26306	-0.00473	-0.001221
12.888	0.02594	0.31357	0.022888	0.009918	0.053558	0.27512	-0.22339	-0.018311	-0.16785	0.00885	-0.10223	-0.00946	0.036774	0.038147	0.17242	-0.00412	0.007172	-0.17792	0.33173	0.054474	0.058289	0.040588	-0.43198	-0.034332	0.007019	0.007324	0.12802	-0.000916	-0.54169	0.13702	-0.005798	-0.011597
12.889	0.040283	0.40695	0.021667	-0.008698	0.068054	0.28534	-0.24475	-0.018768	-0.14145	0.003204	0.010223	-0.005188	0.02533	0.074005	0.112	0.006409	0.007629	-0.17181	0.71198	0.009308	0.063019	0.047455	-0.38238	-0.030212	0.00412	0.004272	0.085449	0.002747	0.09903	0.1062	-0.004425	-0.006256
12.89	0.037079	0.47119	0.005493	0.005035	-0.006714	0.26535	-0.12405	-0.025482	-0.048218	0.038757	0.26199	-0.007935	-0.03891	-0.012512	-0.008545	0.001831	-0.010986	-0.15213	0.72906	0.075531	0.069885	0.014038	-0.39139	-0.00412	-0.005951	-0.002594	0.049896	-0.000763	-0.32516	0.08255	-0.003052	-0.016785
12.891	0.03006	0.46387	0.17914	0.00351	-0.015106	-0.2919	-0.03418	-0.018616	0.09491	0.008698	0.4425	-0.006561	-0.027466	0.06546	0.52124	0.003815	-0.022278	-0.13825	0.48508	0.11978	0.07019	0.015106	-0.36591	-0.015259	-0.026703	-0.003052	0.023193	0.012512	-0.16815	0.033875	-0.003357	-0.009155
12.892	0.019989	0.42343	0.19547	0.002136	-0.018005	-0.66528	0.025635	-0.029297	0.14069	0.004578	0.4837	-0.004578	-0.024261	0.15701	0.35858	0.002441	-0.038452	-0.14832	0.50507	0.12146	0.073853	0.028839	-0.37872	-0.022278	-0.037537	-0.003662	-0.054321	-0.00412	0.93201	0.021667	-0.002899	-0.015869
12.893	0.002136	0.42282	0.088043	0.010223	-0.022888	-0.62714	0.072784	-0.012817	0.10681	-0.01709	0.23102	-0.000916	0.076141	0.26138	0.95093	-0.003662	-0.020599	-0.14191	0.46005	0.062561	0.065308	0.032196	-0.40436	-0.027161	-0.041199	-0.000153	-0.17136	-0.00412	0.62347	-0.066833	-0.00946	-0.014343
12.894	-0.008392	0.40009	0.046997	0.002441	0.035248	-0.26062	0.071259	-0.014343	0.093842	-0.021973	-0.12802	-0.007629	0.10773	0.26916	0.29144	0.001526	-0.007782	-0.12482	0.30334	0.006256	0.046539	0.053864	-0.38055	-0.046387	-0.061035	-0.009613	-0.34561	0.001831	0.3627	-0.0354	-0.006714	-0.011597
12.895	-0.028381	0.40802	0.036163	0.005493	0.04425	0.005493	0.11978	-0.01709	0.014191	-0.040894	-0.43976	-0.002899	0.10239	0.31097	-0.1532	-0.002289	-0.002747	-0.1236	0.10346	-0.088043	0.060272	0.022888	-0.38925	0.023651	-0.044403	0.00061	-0.28198	-0.00824	0.25772	-0.024109	-0.003357	-0.012817
12.896	-0.01236	0.345	0.023041	0.004425	-0.00061	0.015869	0.085602	0.00824	0.028229	-0.028381	-0.3186	0.004272	0.045624	0.26199	0.045929	-0.014191	-0.016785	-0.087891	0.11215	-0.14557	0.073547	-0.02533	-0.42465	0.015717	-0.06012	0.000458	-0.13153	0.000763	0.48492	-0.004425	-0.005951	-0.012817
12.897	0.007629	0.37048	0.005646	-0.008698	-0.028839	-0.20248	-0.027618	0.014954	0.085602	-0.031433	-0.17456	-0.006104	0.10452	0.13245	-0.90179	-0.013428	-0.044403	-0.14191	0.16007	-0.14099	0.070343	-0.068512	-0.42587	0.032196	-0.054779	0.010223	0.38361	0.001984	0.60181	-0.1062	-0.002899	-0.012817
12.898	0.012817	0.41	0.006561	0.007477	-0.24506	-0.4007	-0.1091	0.034332	0.10071	-0.029755	-0.21484	-0.001221	0.17731	0.066071	-0.67841	-0.017395	-0.053253	-0.12161	0.057068	-0.10651	0.075989	-0.059814	-0.42725	0.028534	-0.044861	0.012512	0.94574	0.001526	0.62134	-0.16419	-0.004883	-0.004883
12.899	0.011902	0.40207	0.039368	0.00885	-0.32044	-0.36682	-0.086823	0.031891	0.26215	-0.007782	-0.23865	-0.001373	0.24384	0.059662	-0.52429	-0.005035	-0.028381	-0.14023	0.13916	-0.029297	0.067902	-0.061951	-0.42786	0.011444	-0.020599	0.006409	1.0188	-0.000305	0.36957	-0.21011	-0.011902	-0.007935
12.9	0.022278	0.39154	-0.028534	0.014496	-0.17471	-0.46814	-0.005951	0.0177	0.39291	0.010834	-0.074615	-0.003204	0.21027	-0.077515	-0.42297	-0.005188	-0.016174	-0.19577	0.19531	0.002441	0.071259	-0.06424	-0.41046	-0.013885	-0.051727	0.001526	-0.15259	0.000458	0.30167	-0.048065	-0.001221	-0.010071
12.901	0.02182	0.31204	0	0.015869	-0.028229	-0.32059	0.015717	0.005798	0.34424	-0.004425	-0.041351	-0.006866	0.3067	-0.13702	-0.26016	0.002594	0.006561	-0.20828	0.25986	0.041199	0.066376	-0.045471	-0.38681	0.00824	-0.032349	0.00946	-0.43915	0.000153	0.55206	0.006409	-0.001526	-0.00824
12.902	0.011444	0.28076	0.037537	0.004272	0.25223	0.11627	-0.06485	0.014191	0.23407	-0.018921	-0.1091	-0.001984	0.31586	-0.18784	-0.4744	-0.008087	0.028076	-0.18463	0.26276	-0.068054	0.083466	-0.02182	-0.36468	0.020294	-0.039673	0.021057	-0.13199	0.003815	0.13916	-0.13779	-0.001526	-0.005493
